<?xml version="1.0" encoding="utf-8" ?><svg xmlns="http://www.w3.org/2000/svg" xmlns:xlink="http://www.w3.org/1999/xlink" width="1024" height="1024" viewBox="0 0 1024 1024"><path fill="#B5CBBB" d="M412.357 134.781C424.333 133.381 442.34 134.483 454.71 134.5L528.335 134.538L582.067 134.515C591.632 134.491 604.229 134.044 613.51 134.64C685.094 139.233 750.642 157.394 804.39 206.799C863.482 261.116 886.721 335.839 890.889 414.298C891.488 425.57 891.037 440.173 891.002 451.721L890.7 526.498C890.787 572.023 892.939 612.097 885.758 657.425C862.689 803.032 757.169 884.2 611.625 889.474C590.626 889.791 570.36 890.348 549.27 890.16L494.385 889.986C473.608 890.122 452.83 890 432.056 889.621C418.653 889.422 405.47 889.565 392.108 888.144C328.212 881.35 269.192 861.37 220.885 818.06C161.936 765.21 138.256 689.23 134.211 612.08C133.436 597.306 133.839 582.811 133.794 568.07L133.493 497.865C133.393 465.034 132.136 427.897 135.048 395.39C140.785 331.344 162.512 267.271 206.892 219.584C261.038 161.402 334.96 138.473 412.357 134.781ZM472.75 873.539L558.189 873.629C569.213 873.623 580.296 873.554 591.287 873.581C667.502 873.767 744.928 853.925 800.113 798.75C844.635 754.235 866.31 696.609 872.381 634.559C874.334 615.508 874.113 595.778 874.125 576.659L874.134 517.579L874.214 460.53C874.391 440.656 874.907 421.348 873.447 401.472C868.692 336.741 847.864 272.662 801.145 225.874C743.086 167.729 668.233 150.706 588.396 150.508C575.767 150.477 562.851 150.517 550.248 150.717C538.786 151.32 524.428 150.945 512.801 150.958L448.615 151.011C432.286 151.029 415.657 150.821 399.4 151.84C331.26 156.078 264.382 180.762 217.705 231.979C173.566 280.412 153.888 342.745 150.851 407.377C148.825 450.493 150.536 494.239 150.234 537.432C150.051 563.421 149.771 589.502 150.793 615.481C154.947 687.63 177.2 757.785 232.288 807.197C277.541 847.787 336.005 867.255 395.903 872.263C420.427 874.314 447.95 873.575 472.75 873.539Z"/><path fill="#479078" d="M508.481 298.638C526.01 297.131 543.067 309.445 544.954 327.394C546.788 344.85 545.633 363.365 545.574 381.004L545.473 481.933L545.547 624.238L545.591 668.785C545.598 677.172 545.814 685.614 545.377 693.984C544.467 711.38 531.345 723.213 514.606 725.324C498.753 726.287 481.848 714.632 479.849 698.281C478.15 684.374 478.913 669.37 478.902 655.243L478.811 568.613L478.812 409.939C478.813 385.507 478.553 361.081 478.572 336.661C478.586 317.291 488.914 302.149 508.481 298.638Z"/><path fill="#479078" d="M406.999 363.21C422.953 363.709 437.661 373.282 440.374 389.761C442.653 403.607 441.715 417.999 441.679 431.997L441.685 494.001L441.601 583.396C441.574 598.431 441.797 613.532 441.239 628.549C440.572 646.512 427.511 656.874 411.019 660.091C401.89 660.452 394.622 658.202 387.451 652.391C380.606 646.847 376.238 638.814 375.307 630.055C374.402 620.774 375.032 601.261 375.021 591.056L374.92 512.685L374.939 434.287C374.953 420.448 374.613 406.339 375.519 392.558C376.62 375.809 391.068 364.589 406.999 363.21Z"/><path fill="#479078" d="M615.846 363.208C623.62 363.134 629.777 365.428 636.045 369.891C653.753 382.5 650.021 408.587 650.018 427.677L650.149 487.759L650.157 580.85C650.126 597.634 650.52 614.972 649.327 631.668C648.222 647.14 632.773 658.198 618.437 660.062C610.239 660.216 602.243 657.503 595.831 652.393C588.179 646.236 584.442 638.97 583.787 629.32C582.824 615.115 583.193 600.69 583.266 586.464L583.482 515.031L583.347 441.124C583.259 424.846 582.873 408.799 584.094 392.537C585.381 375.398 599.46 364.69 615.846 363.208Z"/><path fill="#479078" d="M719.729 430.125C728.292 429.782 735.466 430.959 742.696 435.812C758.672 446.534 756.655 464.971 756.645 481.794L756.633 518.103C756.637 526.905 756.691 535.707 756.797 544.509C757.041 568.889 755.977 588.895 727.233 593.874C709.235 593.769 694.308 586.023 691.035 566.737C689.873 559.884 690.235 552.327 690.262 545.375L690.342 517.022L690.131 482.843C690.077 474.726 689.963 467.345 690.695 459.206C692.167 442.841 703.707 432.629 719.729 430.125Z"/><path fill="#479078" d="M296.775 430.122C303.83 429.26 310.978 430.616 317.228 434.001C329.8 440.881 334.025 452.706 334.268 466.468C334.587 484.586 334.246 502.759 334.199 520.885C333.554 535.098 335.008 550.069 333.531 564.196C331.776 580.977 321.496 589.883 306.247 593.427C298.016 594.477 289.586 592.873 282.546 588.416C265.923 577.891 267.633 558.158 267.606 541.081L267.544 507.548C267.527 497.551 267.764 486.683 267.5 476.767C266.871 453.13 270.803 435.387 296.775 430.122Z"/></svg>